<?xml version="1.0" standalone="no"?>
<!DOCTYPE svg PUBLIC "-//W3C//DTD SVG 20010904//EN"
 "http://www.w3.org/TR/2001/REC-SVG-20010904/DTD/svg10.dtd">
<svg version="1.0" xmlns="http://www.w3.org/2000/svg"
 width="5120.000000pt" height="5120.000000pt" viewBox="0 0 5120.000000 5120.000000"
 preserveAspectRatio="xMidYMid meet">

<g transform="translate(0.000000,5120.000000) scale(0.100000,-0.100000)"
fill="#000000" stroke="none">
<path d="M28208 36760 c-783 -75 -1492 -374 -2115 -892 -155 -129 -435 -411
-562 -567 -351 -432 -620 -923 -801 -1461 -67 -199 -133 -447 -155 -583 -68
-416 108 -845 450 -1100 394 -293 924 -304 1336 -26 81 54 217 185 279 269
103 139 147 241 210 490 78 307 181 544 338 781 214 321 482 553 792 683 960
406 1998 -319 2250 -1573 98 -487 48 -1149 -122 -1616 -53 -146 -163 -358
-246 -475 -81 -115 -259 -295 -367 -372 -212 -150 -439 -240 -693 -273 -99
-13 -1400 -15 -10725 -15 -9496 0 -10622 -2 -10707 -15 -241 -40 -456 -150
-630 -325 -177 -176 -289 -396 -325 -637 -37 -244 3 -482 116 -703 63 -123
128 -208 237 -311 145 -137 309 -227 513 -282 l84 -22 10680 0 10680 0 158 23
c1053 151 1827 504 2438 1112 85 85 193 200 238 255 527 636 863 1454 980
2385 62 497 59 1033 -10 1490 -198 1308 -902 2458 -1922 3134 -505 335 -1031
533 -1629 612 -141 19 -629 28 -770 14z"/>
<path d="M41745 31950 c-340 -34 -629 -117 -930 -265 -288 -141 -521 -308
-751 -539 -399 -400 -671 -888 -821 -1472 -37 -147 -38 -152 -38 -334 1 -158
4 -197 22 -267 61 -231 163 -405 330 -564 392 -375 976 -424 1432 -122 235
156 406 403 481 696 16 64 41 145 56 182 58 144 182 292 295 351 48 26 64 29
149 29 86 0 101 -3 155 -30 79 -40 188 -150 242 -246 49 -86 97 -224 113 -324
7 -38 12 -127 11 -196 0 -425 -136 -701 -376 -764 -53 -13 -476 -15 -4035 -15
-4328 0 -4054 3 -4235 -55 -369 -119 -660 -423 -760 -795 -166 -620 197 -1245
822 -1418 l98 -27 4025 -3 c2866 -2 4054 0 4125 8 1051 115 1840 629 2277
1485 443 867 488 1976 117 2872 -105 252 -288 563 -455 773 -87 110 -345 367
-454 454 -382 304 -821 496 -1286 566 -160 24 -470 34 -609 20z"/>
<path d="M10307 25154 c-411 -74 -759 -381 -886 -779 -40 -124 -54 -220 -54
-355 0 -134 15 -231 54 -351 123 -379 420 -658 816 -767 l98 -27 10710 -5
c9958 -5 10716 -7 10790 -22 334 -70 580 -201 810 -432 66 -67 150 -164 187
-216 194 -274 320 -628 384 -1075 21 -152 30 -598 15 -751 -104 -1029 -763
-1834 -1581 -1934 -444 -54 -897 121 -1252 483 -291 297 -492 680 -598 1140
-151 656 -807 1047 -1447 861 -419 -121 -736 -478 -814 -914 -35 -193 -9 -405
91 -748 380 -1311 1280 -2366 2425 -2844 364 -152 729 -242 1135 -279 166 -15
596 -6 760 16 839 112 1580 477 2204 1085 380 371 652 747 892 1233 462 936
609 2004 428 3117 -136 837 -442 1549 -927 2155 -107 134 -396 420 -532 529
-608 483 -1370 778 -2285 881 -120 13 -1302 15 -10740 14 -9105 -1 -10616 -3
-10683 -15z"/>
<path d="M10885 20609 c-101 -15 -235 -57 -341 -109 -342 -166 -579 -491 -635
-870 -16 -113 -6 -332 20 -431 110 -422 415 -733 828 -847 l98 -27 6245 -5
c5706 -5 6252 -7 6322 -22 313 -65 500 -213 582 -458 25 -74 30 -104 34 -230
7 -227 -36 -413 -152 -656 -292 -608 -821 -944 -1228 -780 -194 78 -361 250
-502 516 -57 109 -114 249 -216 530 -157 438 -263 598 -453 685 -143 66 -367
73 -529 18 -310 -106 -547 -410 -635 -815 -25 -117 -25 -390 0 -508 60 -278
185 -547 369 -792 186 -246 581 -633 865 -846 530 -398 1194 -585 1849 -521
507 49 1019 264 1434 603 480 391 856 989 1021 1621 85 329 115 593 106 959
-12 497 -97 901 -277 1322 -218 508 -598 956 -1044 1229 -343 210 -709 338
-1191 417 l-140 23 -6185 1 c-3451 1 -6212 -2 -6245 -7z"/>
</g>
</svg>
